<svg xmlns="http://www.w3.org/2000/svg" viewBox="0 0 60.7 57.6"><defs><style>.cls-1{fill:#ad0737;}</style></defs><title>Asset 6</title><g id="Layer_2" data-name="Layer 2"><g id="Layer_1-2" data-name="Layer 1"><g id="Icons"><path class="cls-1" d="M55.1,0H5.6A5.59,5.59,0,0,0,0,5.6V36.2a5.59,5.59,0,0,0,5.6,5.6H23.4v8.5H17.6A2.58,2.58,0,0,0,15,52.9V55a2.58,2.58,0,0,0,2.6,2.6H43A2.58,2.58,0,0,0,45.6,55V52.9A2.58,2.58,0,0,0,43,50.3H37.3V41.8H55.1a5.59,5.59,0,0,0,5.6-5.6V5.6A5.59,5.59,0,0,0,55.1,0Zm-.4,35.8H6V6H54.7Z"/><path class="cls-1" d="M36.4,16.1a1.11,1.11,0,0,0-.8-1.3,11.42,11.42,0,0,0-3.3-.5,8.2,8.2,0,0,0-8.4,8.4c0,3,1.7,4.7,4,4.7a5.26,5.26,0,0,0,4.7-2.8,2.86,2.86,0,0,0,3.1,2.8c3.9,0,6.8-3.3,6.8-8.6,0-6-4.5-10.4-10.9-10.4-8.1,0-13.5,6.4-13.5,13.7A10.89,10.89,0,0,0,29.3,33.4a16.43,16.43,0,0,0,6-1c.4-.1.5-.5.4-.9l-.1-.5a1.33,1.33,0,0,0-.5-.6.85.85,0,0,0-.7,0,12.13,12.13,0,0,1-4.3.7c-5.4,0-9.2-3.4-9.2-9.4,0-6.9,4.8-11.2,10.3-11.2s8.6,3.6,8.6,8.3c0,4.1-1.9,6.1-3.5,6.1-1,0-1.3-1-.9-3.1Zm-4.1,4.6c-.3,2.1-1.7,3.8-3.1,3.8-1.2,0-1.8-.9-1.8-2.2,0-2.8,1.9-5.1,4.2-5.1.5,0,.8.1,1.1.1Z"/></g></g></g></svg>