<?xml version="1.0" encoding="utf-8"?>
<!-- Generator: Adobe Illustrator 21.0.2, SVG Export Plug-In . SVG Version: 6.00 Build 0)  -->
<svg version="1.1" id="Capa_1" xmlns="http://www.w3.org/2000/svg" xmlns:xlink="http://www.w3.org/1999/xlink" x="0px" y="0px"
	 viewBox="0 0 477.1 477.1" style="enable-background:new 0 0 477.1 477.1;" xml:space="preserve">
<style type="text/css">
	.st0{fill:#424143;}
</style>
<g id="Layer_2">
	<g id="Layer_1-2">
		<g id="Icons">
			<path class="st0" d="M388.9,57H88.1c-18.8,0-34,15.1-34,33.9c0,0,0,0.1,0,0.1V277c0,18.8,15.1,34,33.9,34c0,0,0.1,0,0.1,0h108.2
				v51.6h-35.2c-8.7-0.1-15.7,6.9-15.8,15.6c0,0.1,0,0.2,0,0.2v12.8c-0.1,8.7,6.9,15.7,15.6,15.8c0.1,0,0.2,0,0.2,0h154.3
				c8.7,0.1,15.7-6.9,15.8-15.6c0-0.1,0-0.2,0-0.2v-12.8c0.1-8.7-6.9-15.7-15.6-15.8c-0.1,0-0.2,0-0.2,0h-34.6V311h108.2
				c18.8,0,34-15.1,34-33.9c0,0,0-0.1,0-0.1V91c0-18.8-15.1-34-33.9-34C389,57,389,57,388.9,57z M386.5,274.5H90.6V93.5h295.9
				L386.5,274.5z"/>
			<path class="st0" d="M275.3,154.8c0.7-3.5-1.4-7-4.9-7.9c-6.5-2-13.3-3-20.1-3c-27.5-0.7-50.4,21.1-51,48.6c0,0.8,0,1.6,0,2.5
				c0,18.2,10.3,28.6,24.3,28.6c12,0.1,23-6.4,28.6-17c0.2,9.6,8.1,17.2,17.7,17.1c0.4,0,0.8,0,1.2-0.1c23.7,0,41.3-20.1,41.3-52.3
				c0-36.5-27.3-63.2-66.2-63.2c-49.2,0-82,38.9-82,83.2c-1.4,36.5,27.1,67.3,63.6,68.6c1.5,0.1,3,0.1,4.5,0
				c12.4,0.3,24.8-1.8,36.5-6.1c2.4-0.6,3-3,2.4-5.5l-0.6-3c-0.6-1.5-1.7-2.8-3-3.6c-1.4-0.6-2.9-0.6-4.3,0
				c-8.4,3-17.2,4.4-26.1,4.3c-32.8,0-55.9-20.7-55.9-57.1c0-41.9,29.2-68.1,62.6-68.1s52.3,21.9,52.3,50.4
				c0,24.9-11.5,37.1-21.3,37.1c-6.1,0-7.9-6.1-5.5-18.8L275.3,154.8z M250.4,182.8c-1.8,12.8-10.3,23.1-18.8,23.1
				c-7.3,0-10.9-5.5-10.9-13.4c0-17,11.5-31,25.5-31c3,0,4.9,0.6,6.7,0.6L250.4,182.8z"/>
		</g>
	</g>
</g>
</svg>
