<?xml version="1.0" encoding="utf-8"?>
<!-- Generator: Adobe Illustrator 21.0.2, SVG Export Plug-In . SVG Version: 6.00 Build 0)  -->
<svg version="1.1" id="Capa_1" xmlns="http://www.w3.org/2000/svg" xmlns:xlink="http://www.w3.org/1999/xlink" x="0px" y="0px"
	 viewBox="0 0 477.1 477.1" style="enable-background:new 0 0 477.1 477.1;" xml:space="preserve">
<style type="text/css">
	.st0{fill:#424143;}
</style>
<g>
	<path class="st0" d="M342,354.3h135c0-81-16.1-130.3-69.8-142.8c27.7-8.4,47.9-34.1,47.9-64.6c0-37.3-30.2-67.5-67.5-67.5
		s-67.5,30.2-67.5,67.5c0,30.4,20.2,56.2,47.9,64.6c-30.7,7.1-49.1,26.4-59.3,56.7c7.8,8.1,14.3,17.8,19.4,29.2
		C335,312.7,339.6,331.3,342,354.3z"/>
	<path class="st0" d="M168.3,268.2c-10.1-30.3-28.5-49.5-59.3-56.7c27.7-8.4,47.9-34.1,47.9-64.6c0-37.3-30.2-67.5-67.5-67.5
		c-37.3,0-67.5,30.2-67.5,67.5c0,30.4,20.2,56.2,47.9,64.6C16.1,224,0,273.3,0,354.3h135c2.5-23,7.1-41.6,13.9-56.9
		C154,286,160.5,276.3,168.3,268.2z"/>
	<path class="st0" d="M258.1,258.3c27.7-8.4,47.9-34.1,47.9-64.6c0-37.3-30.2-67.5-67.5-67.5c-37.3,0-67.5,30.2-67.5,67.5
		c0,30.4,20.2,56.2,47.9,64.6c-53.7,12.5-69.8,61.9-69.8,142.8H328C328,320.1,311.9,270.8,258.1,258.3z"/>
</g>
</svg>
