<svg xmlns="http://www.w3.org/2000/svg" viewBox="0 0 82.7 55.8"><defs><style>.cls-1{fill:#ad0737;}</style></defs><title>Asset 7</title><g id="Layer_2" data-name="Layer 2"><g id="Layer_1-2" data-name="Layer 1"><path class="cls-1" d="M59.3,47.7H82.7c0-14-2.8-22.6-12.1-24.8a11.7,11.7,0,1,0-6.8,0c-5.3,1.2-8.5,4.6-10.3,9.8a16.85,16.85,0,0,1,3.4,5.1A31.92,31.92,0,0,1,59.3,47.7Z"/><path class="cls-1" d="M29.2,32.7c-1.8-5.3-5-8.6-10.3-9.8a11.7,11.7,0,1,0-6.8,0C2.8,25.1,0,33.6,0,47.7H23.4a31.92,31.92,0,0,1,2.4-9.9A16.85,16.85,0,0,1,29.2,32.7Z"/><path class="cls-1" d="M44.7,31a11.7,11.7,0,1,0-6.8,0c-9.3,2.2-12.1,10.7-12.1,24.8h31C56.8,41.8,54.1,33.2,44.7,31Z"/></g></g></svg>