<svg xmlns="http://www.w3.org/2000/svg" viewBox="0 0 64.9 59.03"><defs><style>.cls-1{fill:#ad0737;}</style></defs><title>Asset 5</title><g id="Layer_2" data-name="Layer 2"><g id="Layer_1-2" data-name="Layer 1"><path class="cls-1" d="M22.6,36a12.35,12.35,0,0,1,.9-24.68,12.5,12.5,0,0,1,11.75,8.5h.27a6.08,6.08,0,0,1,2.17.36,6.17,6.17,0,0,1,3.16-3.07,22.07,22.07,0,0,0-.9-2.17l2.8-2.8a2,2,0,0,0,0-2.71l-5-5a2,2,0,0,0-2.71,0l-2.8,2.8A17.56,17.56,0,0,0,29,5.88v-4A1.91,1.91,0,0,0,27.12,0H20.07a1.91,1.91,0,0,0-1.9,1.9v4a24.85,24.85,0,0,0-3.25,1.36l-2.8-2.8a2,2,0,0,0-2.71,0l-5,5a2,2,0,0,0,0,2.71l2.8,2.8a17.56,17.56,0,0,0-1.36,3.25h-4A1.91,1.91,0,0,0,0,20.07v7.05A1.91,1.91,0,0,0,1.9,29h4a24.86,24.86,0,0,0,1.36,3.25l-2.8,2.8a2,2,0,0,0,0,2.71l5,5a2,2,0,0,0,2.71,0l2.8-2.8a17.56,17.56,0,0,0,3.25,1.36v4a1.91,1.91,0,0,0,1.9,1.9h4.52a5.69,5.69,0,0,1-2-4.43A56.52,56.52,0,0,1,22.6,36Z"/><path class="cls-1" d="M31.28,21.51a5,5,0,0,1,.81-.63,9.07,9.07,0,0,0-17.72,2.8,9,9,0,0,0,10.31,8.95A3.4,3.4,0,0,1,26,31.82C24.32,27.39,27.84,24.95,31.28,21.51Z"/><path class="cls-1" d="M45.83,32.54a7.59,7.59,0,1,0,7.59,7.59A7.58,7.58,0,0,0,45.83,32.54Z"/><path class="cls-1" d="M64.9,37.24a1.52,1.52,0,0,0-1.54-1.54H60.2a13.34,13.34,0,0,0-1.08-2.62l2.26-2.26a1.53,1.53,0,0,0,0-2.17l-4-4a1.53,1.53,0,0,0-2.17,0L53,26.94a13.35,13.35,0,0,0-2.62-1.08V22.69a1.52,1.52,0,0,0-1.54-1.54H43.12a1.52,1.52,0,0,0-1.54,1.54v3.16A13.35,13.35,0,0,0,39,26.94L36.7,24.68a1.53,1.53,0,0,0-2.17,0l-4,4a1.53,1.53,0,0,0,0,2.17l2.26,2.26a13.34,13.34,0,0,0-1.08,2.62H28.56A1.52,1.52,0,0,0,27,37.24v5.69a1.52,1.52,0,0,0,1.54,1.54h3.16a13.34,13.34,0,0,0,1.08,2.62l-2.26,2.26a1.48,1.48,0,0,0,0,2.17l4,4a1.53,1.53,0,0,0,2.17,0L39,53.24a13.35,13.35,0,0,0,2.62,1.08v3.16A1.52,1.52,0,0,0,43.12,59h5.69a1.52,1.52,0,0,0,1.54-1.54V54.33A13.35,13.35,0,0,0,53,53.24l2.26,2.26a1.53,1.53,0,0,0,2.17,0l4-4a1.67,1.67,0,0,0,.45-1.08,1.5,1.5,0,0,0-.45-1.08L59.12,47.1a13.34,13.34,0,0,0,1.08-2.62h3.16A1.5,1.5,0,0,0,64.45,44a1.67,1.67,0,0,0,.45-1.08ZM45.83,49.81a9.67,9.67,0,1,1,9.67-9.67A9.68,9.68,0,0,1,45.83,49.81Z"/></g></g></svg>