<?xml version="1.0" encoding="utf-8"?>
<!-- Generator: Adobe Illustrator 21.0.0, SVG Export Plug-In . SVG Version: 6.00 Build 0)  -->
<svg version="1.1" id="Layer_1" xmlns="http://www.w3.org/2000/svg" xmlns:xlink="http://www.w3.org/1999/xlink" x="0px" y="0px"
	 viewBox="0 0 432 115.7" style="enable-background:new 0 0 432 115.7;" xml:space="preserve">
<style type="text/css">
	.st0{fill:#444545;}
	.st1{fill:none;}
	.st2{fill:#1B75BC;}
	.st3{opacity:0.6;}
</style>
<g>
	<g>
		<path class="st0" d="M57.3,35.9c-6.3,0.8-7.3,1.9-10.5,9c-4.1,9-10.3,23.6-17,41.4h-3.3C21.3,72,15.8,58.5,10,44.5
			c-2.7-6.8-3.6-7.6-10-8.6v-3.1h24.5v3.1c-6.4,0.7-6.7,1.7-4.8,6.8c3,8.4,7.9,21,11.3,29.5c4.2-9.9,8-20.7,10.6-28.4
			c1.9-5.7,1.2-7-5.6-7.9v-3.1h21.3V35.9z"/>
		<path class="st0" d="M77.7,44.2c3.6-6.1,8.7-12.8,14.4-12.8c4.1,0,6.9,3.2,6.9,6c0,2.4-1.6,4.8-3.8,5.9c-1.4,0.6-2.4,0.5-3.1-0.2
			c-1.8-1.7-3.2-2.4-5.1-2.4c-3.1,0-6.9,3.5-9.6,10.1v21.9c0,7.9,0.6,8.6,9.8,9.3V85H59.8v-3.1c7.4-0.7,8.2-1.4,8.2-9.3V47.9
			c0-7.9-0.5-8.4-7.4-9.2v-2.7c5.9-1,11.1-2.4,16.8-4.8v13H77.7z"/>
	</g>
	<g>
		<path class="st0" d="M215.3,35.9c-6.3,1-7.3,1.9-10.5,8.6c-3.1,6.3-6.8,16.2-15,35.9c-8,19.1-10.6,25.9-12.3,32.2
			c-0.6,2.4-2.1,3-3.8,3c-3.3,0-6.7-2.9-6.7-5.7c0-1.9,1-3,3-4.4c3.8-2.3,6.1-5.3,9-10.5c2.1-4.2,3.1-6.7,3.7-8.2
			c0.6-1.8,0.5-3.3-0.2-5.4c-4.8-13.6-10.1-28.1-13.6-36.5c-2.6-6.6-3.7-8.1-10.3-9v-3.1h24.1l0.1,3.1c-5.6,0.8-6.2,2-4.5,6.6
			l10.7,29.9c3.3-8.1,8.6-22.2,11-29.7c1.4-4.4,0.7-5.9-6.2-6.7v-3.1h21.6V35.9z"/>
		<path class="st0" d="M268.5,58c0,19.2-14.1,28.4-25.9,28.4c-16.4,0-26.2-13.1-26.2-26.4c0-19.7,15.3-28.7,26.3-28.7
			C257.5,31.4,268.5,43.3,268.5,58z M227.6,56.2c0,15,6.4,26.3,16.4,26.3c7.4,0,13.5-5.5,13.5-21.9c0-13.9-5.6-25.3-16.2-25.3
			C234,35.3,227.6,42.7,227.6,56.2z"/>
		<path class="st0" d="M333.5,82.2c-2.6,0.4-6,1.1-9.2,1.9c-3.1,0.8-6.1,1.8-8.4,2.4l-0.7-0.7v-8.5c-2.7,2-5.4,4.2-8.8,6.2
			c-3.5,2-6,3-9.2,3c-8,0-14.8-4.9-14.8-17.8V45.3c0-6.3-1-6.9-3.9-7.6l-3.3-0.7v-2.7c2.5-0.1,5.5-0.5,8.6-0.8
			c3.2-0.5,6.6-1,8.5-1.3c-0.4,3.7-0.4,9.3-0.4,17.3v16.1c0,10.6,5.1,13.5,10.5,13.5c4.3,0,8.8-1.8,12.9-5.7V45.3c0-6.3-1.1-7-5-7.6
			l-4.3-0.7v-2.7c3.2-0.1,7.3-0.5,10.7-1c3.3-0.4,6.2-0.8,8-1.2v39.9c0,6,1,6.7,5.6,7l3.2,0.1V82.2z"/>
		<path class="st0" d="M361.1,84.9c-2,1.1-3.8,1.6-5,1.6c-7.5,0-11.7-4.8-11.7-14.2V37.6h-8.2l-0.5-1.3l3.3-3.5h5.4v-8.6l7.8-8
			l1.7,0.2v16.4h13.5c1.2,1.3,0.8,3.8-0.7,4.8h-12.8v30.6c0,9.7,3.9,11.5,7,11.5c3,0,5.7-1.2,7.3-2l1.1,3.1L361.1,84.9z"/>
		<path class="st0" d="M406.8,85v-3.1c6.9-0.7,7.9-1.4,7.9-9.2V52.9c0-9.8-3.7-14.7-11.7-14.7c-4.5,0-9.1,2.3-12.4,6.1v28.4
			c0,7.6,0.6,8.5,7.8,9.2V85h-25.4l0.1-3.1c7.2-0.6,8.1-1.3,8.1-9.2v-57c0-7.5-0.2-8-8.1-8.7V4.2c5.7-0.8,12.9-2.7,17.6-4.2v40.1
			c4.3-4.3,10.6-8.7,17.1-8.7c9.7,0,16.5,6.1,16.5,20.4v20.9c0,7.9,1,8.6,7.9,9.2V85H406.8z"/>
	</g>
	<g>
		<path class="st1" d="M128.5,55.5c1.2-1,2.3-2.8,2.3-5.6c0-2.3-1.2-4.6-3.5-4.6c-1.7,0-3,1.9-3,4C124.2,51.6,125.4,53.1,128.5,55.5
			z"/>
		<path class="st1" d="M123.6,58.8c-1.2,1.3-1.9,3.2-1.9,5c0,4.4,3,6.4,6.1,6.4c2,0,4.2-1.2,5.3-2.6
			C129.8,64.1,127.5,62.1,123.6,58.8z"/>
		<path class="st2" d="M159.1,54.6l-5.9,1.4c0.1,1.1,0.2,2.1,0.2,3.2c0,4.8-2.1,11.7-4,13c-1.8,1.4-4.1-0.8-4.3-1.1
			c-2.5-2.5-4.8-4.8-7-7c1.4-2,2.5-3.7,3.8-5.3c1.6-2.1,2.6-2.8,5.4-3v-1.5h-10.8l0,1.5c3.1,0.4,3.5,1.1,2.5,3.1
			c-0.7,1.5-1.4,2.7-2.2,3.9c-3.1-3-5.7-5.3-7-6.4c1.4-1,2.7-1.9,3.6-2.7c1.2-1,1.9-2.2,1.9-3.8c0-3.8-3.1-6.6-7.7-6.6
			c-4.5,0-8.3,3.5-8.3,7.6c0,2.7,1.2,4.7,3,6.4c-4,2.8-6.4,4.5-6.4,8.3c0,3.9,3.4,8.4,9.5,8.4c3,0,5.9-1.7,8.8-5.4
			c1.6,1.6,3,3.1,3.6,3.8c1.1,1.2,1.8,2.2,2.7,3.6c0.4,0.6,1.7,2.5,0,3.8c-1.8,1.3-6.9,2.6-10.7,2.6c-13,0-23.5-10.5-23.5-23.5
			c0-13,10.5-23.5,23.5-23.5c6.6,0,12.6,2.8,16.9,7.2l-3.6,2.2l12.6,6.9l-0.3-14.4l-3.4,2.1c-5.4-6.2-13.4-10.1-22.2-10.1
			c-16.3,0-29.6,13.2-29.6,29.6c0,16.3,13.2,29.6,29.6,29.6c16.3,0,29.6-13.2,29.6-29.6C159.5,57.6,159.3,56.1,159.1,54.6z
			 M127.2,45.3c2.3,0,3.5,2.3,3.5,4.6c0,2.8-1.1,4.6-2.3,5.6c-3.1-2.4-4.3-3.9-4.3-6.2C124.2,47.2,125.5,45.3,127.2,45.3z
			 M127.8,70.2c-3.1,0-6.1-2-6.1-6.4c0-1.8,0.7-3.7,1.9-5c3.9,3.4,6.2,5.4,9.5,8.8C132,68.9,129.8,70.2,127.8,70.2z"/>
	</g>
	<g class="st3">
		<g>
			<path class="st0" d="M191.3,105V94.2h3.8c0.5,0,1,0.1,1.4,0.2c0.4,0.2,0.7,0.4,0.9,0.7c0.2,0.3,0.4,0.6,0.5,1
				c0.1,0.4,0.2,0.8,0.2,1.3c0,0.7-0.2,1.3-0.4,1.8c-0.3,0.5-0.7,0.8-1.3,1l2.1,4.8h-2l-1.8-4.4h-1.6v4.4H191.3z M193.1,99h1.3
				c0.7,0,1.2-0.1,1.4-0.4c0.3-0.2,0.4-0.6,0.4-1.2c0-1-0.5-1.5-1.5-1.5h-1.7V99z"/>
			<path class="st0" d="M201,101.4c0,0.8,0.1,1.3,0.4,1.7c0.3,0.4,0.6,0.5,1,0.5c0.4,0,0.6-0.1,0.8-0.2c0.2-0.2,0.4-0.4,0.7-0.7
				l1.2,0.8c-0.3,0.5-0.7,0.9-1.2,1.2c-0.5,0.3-1,0.4-1.7,0.4c-0.9,0-1.6-0.4-2.1-1.1c-0.5-0.7-0.8-1.7-0.8-3c0-1.2,0.3-2.2,0.8-3
				c0.5-0.7,1.3-1.1,2.2-1.1c0.4,0,0.8,0.1,1.2,0.3c0.3,0.2,0.6,0.5,0.9,0.8c0.2,0.3,0.4,0.7,0.5,1.2s0.2,0.9,0.2,1.4v0.8H201z
				 M203.6,100.2c0-0.5-0.1-1-0.4-1.3c-0.2-0.3-0.6-0.5-1-0.5c-0.4,0-0.7,0.1-0.9,0.5c-0.2,0.3-0.4,0.7-0.4,1.3H203.6z"/>
			<path class="st0" d="M206.5,105V94.2h1.6v3.9c0.3-0.3,0.6-0.5,1-0.7c0.3-0.2,0.7-0.3,1-0.3c0.7,0,1.2,0.2,1.5,0.7
				c0.3,0.5,0.5,1.1,0.5,1.9v5.3h-1.6V100c0-0.5-0.1-0.9-0.2-1.1c-0.1-0.2-0.4-0.3-0.6-0.3c-0.3,0-0.6,0.1-0.9,0.2
				c-0.3,0.2-0.5,0.4-0.7,0.6v5.6H206.5z"/>
			<path class="st0" d="M217.3,105l-0.1-0.7c-0.4,0.3-0.7,0.5-1,0.6c-0.3,0.1-0.7,0.2-1.1,0.2c-0.6,0-1-0.2-1.4-0.6
				c-0.3-0.4-0.5-0.9-0.5-1.5c0-0.9,0.3-1.6,1-2c0.6-0.5,1.6-0.8,3-1v-0.7c0-0.3-0.1-0.5-0.3-0.7c-0.2-0.2-0.4-0.2-0.7-0.2
				c-0.4,0-0.6,0.1-0.9,0.3c-0.2,0.2-0.4,0.4-0.6,0.7l-1.1-0.9c0.2-0.4,0.6-0.7,1-1c0.5-0.3,1-0.4,1.5-0.4c0.9,0,1.6,0.3,2,0.7
				c0.4,0.5,0.6,1.3,0.6,2.4v3.7c0,0.5,0,0.8,0.1,1.1H217.3z M217.2,101.3L217.2,101.3c-0.4,0.1-0.7,0.2-0.9,0.2
				c-0.2,0.1-0.5,0.1-0.7,0.3c-0.2,0.1-0.4,0.3-0.5,0.4c-0.1,0.2-0.2,0.4-0.2,0.7c0,0.3,0.1,0.5,0.2,0.7c0.1,0.2,0.3,0.2,0.6,0.2
				c0.2,0,0.5-0.1,0.8-0.3c0.3-0.2,0.5-0.4,0.7-0.6V101.3z"/>
			<path class="st0" d="M220.4,94.2h1.6V98h0c0.2-0.2,0.4-0.4,0.7-0.6c0.3-0.2,0.6-0.3,0.9-0.3c0.4,0,0.8,0.1,1.2,0.3
				c0.3,0.2,0.6,0.5,0.9,0.9c0.2,0.4,0.4,0.8,0.5,1.2c0.1,0.5,0.2,0.9,0.2,1.4c0,1.3-0.2,2.3-0.7,3.1c-0.5,0.8-1.2,1.2-2,1.2
				c-0.4,0-0.7-0.1-1-0.2c-0.3-0.2-0.6-0.4-0.9-0.7l-0.2,0.8h-1.3V94.2z M222.1,103c0,0,0.1,0.1,0.2,0.2c0.2,0.2,0.3,0.3,0.5,0.4
				c0.1,0.1,0.3,0.1,0.6,0.1c0.5,0,0.9-0.2,1.1-0.7c0.3-0.4,0.4-1.1,0.4-1.9c0-0.8-0.1-1.4-0.4-1.9c-0.3-0.4-0.6-0.7-1.1-0.7
				c-0.2,0-0.5,0.1-0.7,0.2c-0.2,0.1-0.4,0.3-0.6,0.5V103z"/>
			<path class="st0" d="M227.9,95.8v-1.7h1.6v1.7H227.9z M229.6,105h-1.6v-7.8h1.6V105z"/>
			<path class="st0" d="M231.6,105V94.2h1.6V105H231.6z"/>
			<path class="st0" d="M235.3,95.8v-1.7h1.6v1.7H235.3z M236.9,105h-1.6v-7.8h1.6V105z"/>
			<path class="st0" d="M239.1,97.2v-2.6h1.6v2.6h1.3v1.5h-1.3v4.4c0,0.2,0,0.3,0.1,0.4c0.1,0.1,0.2,0.1,0.5,0.1
				c0.1,0,0.3,0,0.6-0.1l0.1,0v1.5l-0.1,0c-0.5,0.1-0.9,0.1-1.2,0.1c-0.6,0-1-0.2-1.3-0.5c-0.3-0.3-0.4-0.8-0.4-1.3v-4.6h-0.9v-1.5
				H239.1z"/>
			<path class="st0" d="M246.7,105l-0.1-0.7c-0.4,0.3-0.7,0.5-1,0.6c-0.3,0.1-0.7,0.2-1.1,0.2c-0.6,0-1-0.2-1.4-0.6
				c-0.3-0.4-0.5-0.9-0.5-1.5c0-0.9,0.3-1.6,1-2c0.6-0.5,1.6-0.8,3-1v-0.7c0-0.3-0.1-0.5-0.3-0.7c-0.2-0.2-0.4-0.2-0.7-0.2
				c-0.4,0-0.6,0.1-0.9,0.3c-0.2,0.2-0.4,0.4-0.6,0.7l-1.1-0.9c0.2-0.4,0.6-0.7,1-1c0.5-0.3,1-0.4,1.5-0.4c0.9,0,1.6,0.3,2,0.7
				c0.4,0.5,0.6,1.3,0.6,2.4v3.7c0,0.5,0,0.8,0.1,1.1H246.7z M246.5,101.3L246.5,101.3c-0.4,0.1-0.7,0.2-0.9,0.2
				c-0.2,0.1-0.5,0.1-0.7,0.3c-0.2,0.1-0.4,0.3-0.5,0.4c-0.1,0.2-0.2,0.4-0.2,0.7c0,0.3,0.1,0.5,0.2,0.7c0.1,0.2,0.3,0.2,0.6,0.2
				c0.2,0,0.5-0.1,0.8-0.3c0.3-0.2,0.5-0.4,0.7-0.6V101.3z"/>
			<path class="st0" d="M250.1,97.2v-2.6h1.6v2.6h1.3v1.5h-1.3v4.4c0,0.2,0,0.3,0.1,0.4c0.1,0.1,0.2,0.1,0.5,0.1
				c0.1,0,0.3,0,0.6-0.1l0.1,0v1.5l-0.1,0c-0.5,0.1-0.9,0.1-1.2,0.1c-0.6,0-1-0.2-1.3-0.5c-0.3-0.3-0.4-0.8-0.4-1.3v-4.6h-0.9v-1.5
				H250.1z"/>
			<path class="st0" d="M254.4,95.8v-1.7h1.6v1.7H254.4z M256,105h-1.6v-7.8h1.6V105z"/>
			<path class="st0" d="M258.1,98.2c0.5-0.7,1.3-1.1,2.2-1.1c0.9,0,1.7,0.4,2.2,1.1c0.5,0.7,0.8,1.7,0.8,3c0,1.2-0.3,2.2-0.8,3
				c-0.5,0.7-1.3,1.1-2.2,1.1c-0.9,0-1.7-0.4-2.2-1.1c-0.5-0.7-0.8-1.7-0.8-3C257.3,99.9,257.6,98.9,258.1,98.2z M260.3,98.6
				c-0.9,0-1.4,0.8-1.4,2.5c0,1.7,0.5,2.5,1.4,2.5c0.9,0,1.3-0.8,1.3-2.5C261.7,99.4,261.2,98.6,260.3,98.6z"/>
			<path class="st0" d="M264.5,105v-7.8h1.5v0.8c0.4-0.3,0.8-0.6,1.1-0.7c0.3-0.2,0.7-0.3,1-0.3c0.7,0,1.2,0.2,1.5,0.7
				c0.3,0.5,0.5,1.1,0.5,1.9v5.3h-1.6V100c0-0.5-0.1-0.9-0.2-1.1c-0.1-0.2-0.3-0.3-0.6-0.3c-0.3,0-0.6,0.1-0.9,0.2
				c-0.3,0.2-0.5,0.4-0.7,0.6v5.6H264.5z"/>
			<path class="st0" d="M276,105V94.2h3.8c0.5,0,1,0.1,1.4,0.2c0.4,0.2,0.7,0.4,0.9,0.7c0.2,0.3,0.4,0.6,0.5,1
				c0.1,0.4,0.2,0.8,0.2,1.3c0,0.7-0.2,1.3-0.4,1.8c-0.3,0.5-0.7,0.8-1.3,1l2.1,4.8h-2l-1.8-4.4h-1.6v4.4H276z M277.8,99h1.3
				c0.7,0,1.2-0.1,1.4-0.4c0.3-0.2,0.4-0.6,0.4-1.2c0-1-0.5-1.5-1.5-1.5h-1.7V99z"/>
			<path class="st0" d="M285.7,101.4c0,0.8,0.1,1.3,0.4,1.7c0.3,0.4,0.6,0.5,1,0.5c0.4,0,0.6-0.1,0.8-0.2c0.2-0.2,0.4-0.4,0.7-0.7
				l1.2,0.8c-0.3,0.5-0.7,0.9-1.2,1.2c-0.5,0.3-1,0.4-1.7,0.4c-0.9,0-1.6-0.4-2.1-1.1c-0.5-0.7-0.8-1.7-0.8-3c0-1.2,0.3-2.2,0.8-3
				c0.5-0.7,1.3-1.1,2.2-1.1c0.4,0,0.8,0.1,1.2,0.3c0.4,0.2,0.6,0.5,0.9,0.8c0.2,0.3,0.4,0.7,0.5,1.2c0.1,0.4,0.2,0.9,0.2,1.4v0.8
				H285.7z M288.4,100.2c0-0.5-0.1-1-0.4-1.3c-0.2-0.3-0.6-0.5-0.9-0.5c-0.4,0-0.7,0.1-0.9,0.5c-0.2,0.3-0.4,0.7-0.4,1.3H288.4z"/>
			<path class="st0" d="M294.6,99.3c-0.2-0.2-0.4-0.4-0.6-0.6c-0.2-0.2-0.4-0.2-0.7-0.2c-0.3,0-0.5,0.1-0.7,0.2
				c-0.2,0.1-0.2,0.3-0.2,0.6c0,0.2,0.1,0.4,0.3,0.6c0.2,0.1,0.5,0.3,0.9,0.5c0.3,0.1,0.6,0.3,0.8,0.4c0.2,0.1,0.5,0.3,0.7,0.5
				c0.2,0.2,0.4,0.4,0.5,0.7c0.1,0.3,0.2,0.6,0.2,1c0,0.8-0.2,1.4-0.7,1.7c-0.5,0.4-1.1,0.6-1.8,0.6c-0.5,0-1-0.1-1.5-0.4
				c-0.4-0.3-0.8-0.7-1.1-1.2l1.1-0.9c0.2,0.3,0.5,0.6,0.7,0.8c0.3,0.2,0.6,0.3,0.9,0.3c0.3,0,0.5-0.1,0.7-0.2
				c0.2-0.2,0.3-0.4,0.3-0.6c0-0.3-0.1-0.4-0.3-0.6c-0.2-0.1-0.5-0.3-1-0.5c-0.3-0.1-0.6-0.3-0.8-0.4c-0.2-0.1-0.4-0.3-0.6-0.4
				c-0.2-0.2-0.4-0.4-0.5-0.7c-0.1-0.3-0.2-0.6-0.2-1c0-0.7,0.2-1.3,0.7-1.7c0.4-0.4,1-0.6,1.6-0.6c0.5,0,0.9,0.1,1.3,0.3
				c0.4,0.2,0.8,0.5,1.1,0.9L294.6,99.3z"/>
			<path class="st0" d="M298.2,101.4c0,0.8,0.1,1.3,0.4,1.7c0.3,0.4,0.6,0.5,1,0.5c0.4,0,0.6-0.1,0.8-0.2c0.2-0.2,0.4-0.4,0.7-0.7
				l1.2,0.8c-0.3,0.5-0.7,0.9-1.2,1.2c-0.5,0.3-1,0.4-1.7,0.4c-0.9,0-1.6-0.4-2.1-1.1c-0.5-0.7-0.8-1.7-0.8-3c0-1.2,0.3-2.2,0.8-3
				c0.5-0.7,1.3-1.1,2.2-1.1c0.4,0,0.8,0.1,1.2,0.3c0.3,0.2,0.6,0.5,0.9,0.8c0.2,0.3,0.4,0.7,0.5,1.2c0.1,0.4,0.2,0.9,0.2,1.4v0.8
				H298.2z M300.8,100.2c0-0.5-0.1-1-0.4-1.3c-0.2-0.3-0.6-0.5-1-0.5c-0.4,0-0.7,0.1-0.9,0.5c-0.2,0.3-0.4,0.7-0.4,1.3H300.8z"/>
			<path class="st0" d="M307.2,105l-0.1-0.7c-0.3,0.3-0.7,0.5-1,0.6c-0.3,0.1-0.7,0.2-1.1,0.2c-0.6,0-1-0.2-1.4-0.6
				c-0.3-0.4-0.5-0.9-0.5-1.5c0-0.9,0.3-1.6,1-2c0.6-0.5,1.6-0.8,3-1v-0.7c0-0.3-0.1-0.5-0.3-0.7c-0.2-0.2-0.4-0.2-0.7-0.2
				c-0.4,0-0.6,0.1-0.9,0.3c-0.2,0.2-0.4,0.4-0.6,0.7l-1.1-0.9c0.2-0.4,0.6-0.7,1.1-1c0.5-0.3,1-0.4,1.5-0.4c0.9,0,1.6,0.3,2,0.7
				c0.4,0.5,0.6,1.3,0.6,2.4v3.7c0,0.5,0,0.8,0.1,1.1H307.2z M307,101.3L307,101.3c-0.4,0.1-0.7,0.2-0.9,0.2
				c-0.2,0.1-0.5,0.1-0.7,0.3c-0.2,0.1-0.4,0.3-0.5,0.4c-0.1,0.2-0.2,0.4-0.2,0.7c0,0.3,0.1,0.5,0.2,0.7c0.1,0.2,0.3,0.2,0.6,0.2
				c0.2,0,0.5-0.1,0.8-0.3c0.3-0.2,0.5-0.4,0.7-0.6V101.3z"/>
			<path class="st0" d="M310.2,105v-7.8h1.5v1.3h0c0.2-0.5,0.5-0.8,0.8-1.1c0.3-0.2,0.7-0.4,1.2-0.4v2c-0.1,0-0.1,0-0.3,0
				c-0.2,0-0.4,0.1-0.6,0.2c-0.2,0.1-0.3,0.2-0.5,0.4c-0.1,0.2-0.3,0.3-0.3,0.4c-0.1,0.1-0.1,0.2-0.1,0.3v4.7H310.2z"/>
			<path class="st0" d="M318.5,99.8c-0.2-0.4-0.3-0.7-0.5-0.9c-0.2-0.2-0.5-0.3-0.8-0.3c-0.9,0-1.3,0.8-1.3,2.5
				c0,0.9,0.1,1.5,0.3,1.9c0.2,0.4,0.6,0.6,1.1,0.6c0.3,0,0.6-0.1,0.8-0.3c0.2-0.2,0.4-0.5,0.6-0.9l1.2,0.8
				c-0.3,0.7-0.7,1.2-1.1,1.5c-0.4,0.3-1,0.5-1.6,0.5c-0.9,0-1.7-0.4-2.2-1.1c-0.5-0.7-0.8-1.7-0.8-3c0-1.2,0.3-2.2,0.8-3
				c0.5-0.7,1.3-1.1,2.2-1.1c0.7,0,1.2,0.2,1.7,0.6c0.5,0.4,0.8,0.9,1,1.5L318.5,99.8z"/>
			<path class="st0" d="M321.3,105V94.2h1.6v3.9c0.3-0.3,0.6-0.5,1-0.7c0.3-0.2,0.7-0.3,1-0.3c0.7,0,1.2,0.2,1.5,0.7
				c0.3,0.5,0.5,1.1,0.5,1.9v5.3h-1.6V100c0-0.5-0.1-0.9-0.2-1.1c-0.1-0.2-0.4-0.3-0.6-0.3c-0.3,0-0.6,0.1-0.9,0.2
				c-0.3,0.2-0.5,0.4-0.7,0.6v5.6H321.3z"/>
			<path class="st0" d="M340,100.1c-0.2,0.5-0.4,1-0.5,1.4c-0.2,0.4-0.4,0.8-0.6,1.2c0.2,0.2,0.4,0.4,0.7,0.5
				c0.2,0.1,0.5,0.2,0.7,0.2v1.7c-0.2,0-0.5,0-0.6,0c-0.2,0-0.3-0.1-0.5-0.2c-0.2-0.1-0.3-0.2-0.5-0.3c-0.2-0.1-0.4-0.3-0.7-0.6
				c-0.6,0.8-1.4,1.1-2.4,1.1c-0.9,0-1.7-0.3-2.2-0.8c-0.6-0.5-0.8-1.3-0.8-2.3c0-0.6,0.1-1.1,0.4-1.6c0.3-0.4,0.7-0.9,1.2-1.2
				c-0.3-0.5-0.5-0.9-0.6-1.3c-0.1-0.4-0.2-0.8-0.2-1.3c0-0.8,0.2-1.4,0.7-1.8c0.5-0.5,1-0.7,1.7-0.7c0.3,0,0.6,0.1,0.9,0.2
				c0.3,0.1,0.5,0.3,0.7,0.5c0.2,0.2,0.4,0.5,0.5,0.8c0.1,0.3,0.2,0.6,0.2,0.9c0,0.3-0.1,0.6-0.1,0.9c-0.1,0.3-0.2,0.5-0.4,0.8
				c-0.2,0.2-0.3,0.4-0.5,0.6c-0.2,0.2-0.4,0.4-0.7,0.7l-0.1,0c0.6,0.9,1.1,1.6,1.7,2.1c0.4-0.6,0.7-1.3,0.9-2L340,100.1z
				 M334.5,103c0.3,0.3,0.6,0.5,1,0.5c0.5,0,0.9-0.2,1.3-0.6c-0.7-0.6-1.4-1.4-1.9-2.3c-0.3,0.3-0.5,0.5-0.6,0.7
				c-0.1,0.2-0.2,0.4-0.2,0.8C334.1,102.3,334.2,102.7,334.5,103z M335.2,98.2c0.3-0.3,0.6-0.6,0.8-0.9c0.2-0.3,0.3-0.6,0.3-0.9
				c0-0.3-0.1-0.6-0.2-0.8c-0.1-0.2-0.3-0.3-0.6-0.3c-0.2,0-0.4,0.1-0.6,0.3c-0.2,0.2-0.2,0.5-0.2,0.8
				C334.7,97,334.8,97.6,335.2,98.2z"/>
			<path class="st0" d="M351.7,94.2v1.7h-2.5v9.1h-1.8v-9.1h-2.5v-1.7H351.7z"/>
			<path class="st0" d="M351.8,105v-7.8h1.5v1.3h0c0.2-0.5,0.5-0.8,0.8-1.1c0.3-0.2,0.7-0.4,1.2-0.4v2c-0.1,0-0.1,0-0.3,0
				c-0.2,0-0.4,0.1-0.6,0.2c-0.2,0.1-0.3,0.2-0.5,0.4c-0.1,0.2-0.3,0.3-0.3,0.4c-0.1,0.1-0.1,0.2-0.1,0.3v4.7H351.8z"/>
			<path class="st0" d="M359.8,105l-0.1-0.7c-0.4,0.3-0.7,0.5-1,0.6c-0.3,0.1-0.7,0.2-1.1,0.2c-0.6,0-1.1-0.2-1.4-0.6
				c-0.3-0.4-0.5-0.9-0.5-1.5c0-0.9,0.3-1.6,1-2c0.6-0.5,1.6-0.8,3-1v-0.7c0-0.3-0.1-0.5-0.3-0.7c-0.2-0.2-0.4-0.2-0.7-0.2
				c-0.3,0-0.6,0.1-0.9,0.3c-0.2,0.2-0.4,0.4-0.6,0.7l-1.1-0.9c0.2-0.4,0.6-0.7,1-1c0.5-0.3,1-0.4,1.5-0.4c0.9,0,1.6,0.3,2,0.7
				c0.4,0.5,0.6,1.3,0.6,2.4v3.7c0,0.5,0,0.8,0.1,1.1H359.8z M359.6,101.3L359.6,101.3c-0.4,0.1-0.7,0.2-0.9,0.2
				c-0.2,0.1-0.5,0.1-0.7,0.3c-0.2,0.1-0.4,0.3-0.5,0.4c-0.1,0.2-0.2,0.4-0.2,0.7c0,0.3,0.1,0.5,0.2,0.7c0.1,0.2,0.3,0.2,0.6,0.2
				c0.2,0,0.5-0.1,0.8-0.3c0.3-0.2,0.5-0.4,0.7-0.6V101.3z"/>
			<path class="st0" d="M363,95.8v-1.7h1.6v1.7H363z M364.7,105H363v-7.8h1.6V105z"/>
			<path class="st0" d="M366.5,105v-7.8h1.5v0.8c0.4-0.3,0.8-0.6,1.1-0.7c0.3-0.2,0.7-0.3,1-0.3c0.7,0,1.2,0.2,1.5,0.7
				c0.3,0.5,0.5,1.1,0.5,1.9v5.3h-1.6V100c0-0.5-0.1-0.9-0.2-1.1c-0.1-0.2-0.3-0.3-0.6-0.3c-0.3,0-0.6,0.1-0.9,0.2
				c-0.3,0.2-0.5,0.4-0.7,0.6v5.6H366.5z"/>
			<path class="st0" d="M374,95.8v-1.7h1.6v1.7H374z M375.7,105H374v-7.8h1.6V105z"/>
			<path class="st0" d="M377.5,105v-7.8h1.5v0.8c0.4-0.3,0.8-0.6,1.1-0.7c0.3-0.2,0.7-0.3,1-0.3c0.7,0,1.2,0.2,1.5,0.7
				c0.3,0.5,0.5,1.1,0.5,1.9v5.3h-1.6V100c0-0.5-0.1-0.9-0.2-1.1c-0.1-0.2-0.3-0.3-0.6-0.3c-0.3,0-0.6,0.1-0.9,0.2
				c-0.3,0.2-0.5,0.4-0.7,0.6v5.6H377.5z"/>
			<path class="st0" d="M390.5,98.4c-0.3,0-0.5,0-0.6,0c-0.2,0-0.3,0.1-0.4,0.1c0.2,0.4,0.4,0.8,0.4,1.4c0,0.8-0.2,1.4-0.7,1.8
				c-0.4,0.5-1.1,0.7-1.9,0.7c-0.4,0-0.8,0-1,0.1c-0.2,0.1-0.3,0.2-0.3,0.4c0,0.2,0.1,0.4,0.4,0.4c0.2,0.1,0.6,0.1,1.2,0.2
				c0.5,0,0.9,0.1,1.2,0.1c0.3,0,0.6,0.1,0.9,0.3c0.3,0.1,0.5,0.3,0.7,0.6c0.2,0.3,0.3,0.6,0.3,1.1c0,0.3-0.1,0.6-0.2,0.8
				c-0.1,0.3-0.3,0.5-0.6,0.7c-0.3,0.2-0.6,0.4-1,0.5c-0.4,0.1-0.9,0.2-1.4,0.2c-0.9,0-1.7-0.2-2.2-0.5c-0.5-0.3-0.8-0.8-0.8-1.4
				c0-0.5,0.1-0.8,0.4-1.1c0.2-0.3,0.5-0.4,0.9-0.4v0c0,0-0.1-0.1-0.2-0.1c-0.3-0.1-0.4-0.3-0.6-0.4c-0.1-0.2-0.2-0.4-0.2-0.7
				c0-0.2,0-0.3,0.1-0.5c0.1-0.2,0.2-0.3,0.3-0.4c0.1-0.1,0.2-0.2,0.4-0.3c0.1-0.1,0.2-0.1,0.3-0.2c-0.3-0.3-0.6-0.6-0.8-0.9
				c-0.2-0.3-0.3-0.7-0.3-1.1c0-0.7,0.2-1.4,0.7-1.9c0.5-0.5,1.1-0.8,2-0.8c0.3,0,0.6,0.1,0.9,0.2c0.3,0.1,0.6,0.3,0.8,0.5
				c0.2-0.2,0.4-0.4,0.6-0.5c0.3-0.1,0.6-0.2,1-0.2V98.4z M386,105.2c-0.2,0.2-0.3,0.4-0.3,0.6c0,0.3,0.1,0.5,0.4,0.7
				c0.3,0.1,0.7,0.2,1.4,0.2c0.5,0,0.8-0.1,1.1-0.3c0.2-0.2,0.4-0.4,0.4-0.6c0-0.2-0.2-0.4-0.5-0.6c-0.3-0.2-0.9-0.3-1.6-0.3
				C386.5,104.9,386.2,105,386,105.2z M388,98.8c-0.2-0.2-0.5-0.4-0.8-0.4c-0.3,0-0.6,0.1-0.9,0.4c-0.2,0.2-0.3,0.6-0.3,0.9
				c0,0.4,0.1,0.7,0.3,0.9c0.2,0.2,0.5,0.4,0.9,0.4c0.3,0,0.6-0.1,0.8-0.4c0.2-0.2,0.3-0.6,0.3-0.9C388.3,99.4,388.2,99.1,388,98.8z
				"/>
			<path class="st0" d="M400.6,97.4c-0.1-0.5-0.4-0.9-0.6-1.1c-0.3-0.3-0.7-0.4-1.1-0.4c-0.6,0-1.1,0.3-1.4,1
				c-0.3,0.7-0.5,1.6-0.5,2.8c0,2.5,0.7,3.8,2,3.8c0.4,0,0.8-0.1,1-0.3c0.3-0.2,0.6-0.6,0.8-1.3l1.7,0.5c-0.3,0.9-0.7,1.6-1.3,2.1
				c-0.6,0.5-1.3,0.7-2.2,0.7c-1.2,0-2.2-0.5-2.8-1.5c-0.7-1-1-2.3-1-4.1c0-1.8,0.3-3.1,1-4.1c0.7-1,1.6-1.5,2.8-1.5
				c0.9,0,1.6,0.2,2.2,0.7c0.5,0.5,0.9,1.2,1.2,2.1L400.6,97.4z"/>
			<path class="st0" d="M404.7,101.4c0,0.8,0.1,1.3,0.4,1.7c0.3,0.4,0.6,0.5,1,0.5c0.3,0,0.6-0.1,0.8-0.2c0.2-0.2,0.4-0.4,0.7-0.7
				l1.2,0.8c-0.3,0.5-0.7,0.9-1.2,1.2c-0.5,0.3-1,0.4-1.7,0.4c-0.9,0-1.6-0.4-2.1-1.1c-0.5-0.7-0.8-1.7-0.8-3c0-1.2,0.3-2.2,0.8-3
				c0.5-0.7,1.3-1.1,2.2-1.1c0.4,0,0.8,0.1,1.2,0.3c0.4,0.2,0.7,0.5,0.9,0.8c0.2,0.3,0.4,0.7,0.5,1.2c0.1,0.4,0.2,0.9,0.2,1.4v0.8
				H404.7z M407.3,100.2c0-0.5-0.1-1-0.4-1.3c-0.2-0.3-0.6-0.5-0.9-0.5c-0.4,0-0.7,0.1-0.9,0.5c-0.2,0.3-0.4,0.7-0.4,1.3H407.3z"/>
			<path class="st0" d="M410.2,105v-7.8h1.5v0.8c0.4-0.3,0.8-0.6,1.1-0.7c0.3-0.2,0.7-0.3,1-0.3c0.7,0,1.2,0.2,1.5,0.7
				c0.3,0.5,0.5,1.1,0.5,1.9v5.3h-1.6V100c0-0.5-0.1-0.9-0.2-1.1c-0.1-0.2-0.3-0.3-0.6-0.3c-0.3,0-0.6,0.1-0.9,0.2
				c-0.3,0.2-0.5,0.4-0.7,0.6v5.6H410.2z"/>
			<path class="st0" d="M417.8,97.2v-2.6h1.6v2.6h1.3v1.5h-1.3v4.4c0,0.2,0,0.3,0.1,0.4c0.1,0.1,0.2,0.1,0.5,0.1
				c0.1,0,0.3,0,0.6-0.1l0.1,0v1.5l-0.1,0c-0.5,0.1-0.9,0.1-1.2,0.1c-0.6,0-1-0.2-1.3-0.5c-0.3-0.3-0.4-0.8-0.4-1.3v-4.6h-1v-1.5
				H417.8z"/>
			<path class="st0" d="M423,101.4c0,0.8,0.1,1.3,0.4,1.7c0.3,0.4,0.6,0.5,1,0.5c0.3,0,0.6-0.1,0.8-0.2c0.2-0.2,0.4-0.4,0.7-0.7
				l1.2,0.8c-0.3,0.5-0.7,0.9-1.2,1.2c-0.5,0.3-1,0.4-1.7,0.4c-0.9,0-1.6-0.4-2.1-1.1c-0.5-0.7-0.8-1.7-0.8-3c0-1.2,0.3-2.2,0.8-3
				c0.5-0.7,1.3-1.1,2.2-1.1c0.4,0,0.8,0.1,1.2,0.3c0.4,0.2,0.6,0.5,0.9,0.8c0.2,0.3,0.4,0.7,0.5,1.2c0.1,0.4,0.2,0.9,0.2,1.4v0.8
				H423z M425.7,100.2c0-0.5-0.1-1-0.4-1.3c-0.2-0.3-0.6-0.5-0.9-0.5c-0.4,0-0.7,0.1-0.9,0.5c-0.2,0.3-0.4,0.7-0.4,1.3H425.7z"/>
			<path class="st0" d="M428.4,105v-7.8h1.5v1.3h0c0.2-0.5,0.5-0.8,0.8-1.1c0.3-0.2,0.7-0.4,1.2-0.4v2c-0.1,0-0.1,0-0.3,0
				c-0.2,0-0.4,0.1-0.6,0.2c-0.2,0.1-0.3,0.2-0.5,0.4c-0.1,0.2-0.3,0.3-0.4,0.4c-0.1,0.1-0.1,0.2-0.1,0.3v4.7H428.4z"/>
		</g>
	</g>
</g>
</svg>
